Coordinates
version=1
nRows=8
nColumns=40
inDegrees=yes

Units are S.I. units (second, meters, Newtons, ...)
Angles are in degrees.

endheader
time	pelvis_tilt	pelvis_list	pelvis_rotation	pelvis_tx	pelvis_ty	pelvis_tz	hip_flexion_r	hip_adduction_r	hip_rotation_r	knee_angle_r	knee_angle_r_beta	ankle_angle_r	subtalar_angle_r	mtp_angle_r	hip_flexion_l	hip_adduction_l	hip_rotation_l	knee_angle_l	knee_angle_l_beta	ankle_angle_l	subtalar_angle_l	mtp_angle_l	lumbar_extension	lumbar_bending	lumbar_rotation	arm_flex_r	arm_add_r	arm_rot_r	elbow_flex_r	pro_sup_r	wrist_flex_r	wrist_dev_r	arm_flex_l	arm_add_l	arm_rot_l	elbow_flex_l	pro_sup_l	wrist_flex_l	wrist_dev_l
      0.00000000	     -4.32416688	     -2.22265977	      0.86085190	     -1.01705507	      0.89100480	      1.09585205	     19.90246621	      2.34116168	    -10.67372785	    -26.47329363	     -0.46204614	      6.44533360	     -7.92852719	      1.66580666	     15.94169901	      4.76298395	      0.76387984	    -62.34764773	     -1.08817173	     -1.51596651	     16.09937842	     -0.23240339	     -0.59308168	      2.58563317	     -7.69399061	     -0.70075964	     -7.93374534	    -16.41655824	     25.56323426	     89.95437384	      0.00000000	      0.00000000	     -2.34634151	      8.84985304	     21.93218021	     33.43624391	     89.95437384	      0.00000000	      0.00000000
      0.01000000	     -4.19166071	     -2.04383503	      0.70696955	     -1.01096464	      0.89161449	      1.09714552	     19.27845969	      2.32992775	    -10.44642844	    -26.42654933	     -0.46123030	      6.88014905	     -7.87606356	      1.66650334	     16.89483187	      4.67370658	      1.15723658	    -63.10720797	     -1.10142856	     -0.66553159	     16.19306770	     -0.23200395	     -0.88678553	      2.41170287	     -7.37428812	     -0.47871158	     -7.96398951	    -16.30504642	     25.97139940	     89.95437384	      0.00000000	      0.00000000	     -2.60174533	      8.73005771	     22.02401418	     33.09682537	     89.95437384	      0.00000000	      0.00000000
      0.02000000	     -4.09332405	     -1.85712619	      0.50840715	     -1.00489343	      0.89213692	      1.09847604	     18.69934661	      2.30649902	    -10.23836034	    -26.36187129	     -0.46010145	      7.23307049	     -7.79751982	      1.68459463	     17.86201291	      4.58217447	      1.59454631	    -63.71706601	     -1.11207259	      0.35044315	     16.22467478	     -0.23542259	     -1.12783773	      2.22358108	     -7.04767889	     -0.28372728	     -8.02645067	    -16.08537000	     26.47917277	     89.95437384	      0.00000000	      0.00000000	     -2.89151156	      8.62210435	     22.11596851	     32.79962235	     89.95437384	      0.00000000	      0.00000000
      0.03000000	     -3.99626106	     -1.71686951	      0.34326023	     -0.99874898	      0.89266492	      1.09972217	     18.09367827	      2.32161954	    -10.02929997	    -26.28288303	     -0.45872285	      7.67250445	     -7.73993637	      1.68185842	     18.81464475	      4.56751539	      2.05904917	    -64.14469750	     -1.11953617	      1.24348894	     16.33330273	     -0.22284191	     -1.33585824	      2.07461908	     -6.76662334	     -0.06401985	     -8.12003481	    -15.89922707	     26.88314562	     89.95437384	      0.00000000	      0.00000000	     -3.15618801	      8.50393018	     22.22590435	     32.43215181	     89.95437384	      0.00000000	      0.00000000
      0.04000000	     -3.93948127	     -1.55989439	      0.16420499	     -0.99267443	      0.89314086	      1.10098144	     17.48777813	      2.32413421	     -9.76982755	    -26.10746292	     -0.45566119	      7.99776595	     -7.64722865	      1.70932807	     19.75987281	      4.54770630	      2.56296379	    -64.38525025	     -1.12373461	      2.44575054	     16.39841883	     -0.20651515	     -1.50383495	      1.90667084	     -6.45829074	      0.07420691	     -8.20363640	    -15.65749848	     27.43958988	     89.95437384	      0.00000000	      0.00000000	     -3.38944322	      8.40834687	     22.34362073	     32.03185312	     89.95437384	      0.00000000	      0.00000000
      0.05000000	     -3.89772217	     -1.37858568	      0.05824627	     -0.98652421	      0.89356200	      1.10216602	     16.90803006	      2.21322138	     -9.89176758	    -25.95632054	     -0.45302326	      8.26198067	     -7.59342976	      1.68447403	     20.73664843	      4.54017136	      3.12274186	    -64.44805110	     -1.12483069	      3.08175931	     16.41192696	     -0.21054226	     -1.61373021	      1.69195395	     -6.26568676	      0.31017061	     -8.23011350	    -15.56362301	     27.78808360	     89.95437384	      0.00000000	      0.00000000	     -3.71272224	      8.36516302	     22.33623083	     31.74095024	     89.95437384	      0.00000000	      0.00000000
      0.06000000	     -3.87423524	     -1.25914151	     -0.02815419	     -0.98033039	      0.89394942	      1.10323885	     16.31369897	      2.17954422	     -9.91140684	    -25.74111643	     -0.44926723	      8.60106802	     -7.52372526	      1.64933376	     21.67905467	      4.58663850	      3.66901473	    -64.32575859	     -1.12269628	      3.93289729	     16.70131661	     -0.19821908	     -1.68750232	      1.54782196	     -6.11187551	      0.53630159	     -8.27266076	    -15.47791820	     28.16121011	     89.95437384	      0.00000000	      0.00000000	     -4.01710265	      8.30777031	     22.34375083	     31.35985960	     89.95437384	      0.00000000	      0.00000000
      0.07000000	     -3.81352297	     -1.23752346	     -0.20604238	     -0.97423634	      0.89433902	      1.10432724	     15.63997107	      2.33321483	     -9.60719354	    -25.43052565	     -0.44384640	      9.05135966	     -7.39735971	      1.61111625	     22.51957500	      4.59099200	      3.96790661	    -64.08141553	     -1.11843169	      5.32287912	     17.44858464	     -0.10800979	     -1.81406892	      1.52559177	     -5.77411079	      0.68343670	     -8.40727313	    -15.34448844	     28.63748960	     89.95437384	      0.00000000	      0.00000000	     -4.16855259	      8.21423547	     22.42775035	     30.87866240	     89.95437384	      0.00000000	      0.00000000
